<mxfile host="app.diagrams.net" modified="2024-07-23T09:47:43.562Z" agent="Mozilla/5.0 (Macintosh; Intel Mac OS X 10.13; rv:109.0) Gecko/20100101 Firefox/115.0" version="24.7.3" etag="umyohNWeFHe9T6NASdQ4" type="github">
  <diagram name="Page-1" id="BGHfeKcq9a6I3mHp6BFg">
    <mxGraphModel>
      <root>
        <mxCell id="0" />
        <mxCell id="1" parent="0" />
      </root>
    </mxGraphModel>
  </diagram>
</mxfile>
